# xmcd
#
# Track frame offsets: 
#        150
#        22425
#        47780
#        77575
#        104012
#        140087
#        155012
#        175412
#        211490
#        234365
#        260952
#        298302
#        311450
#        330238
#        338976
#
# Disc length: 4799 seconds
#
# Revision: 2
# Processed by: cddbd v1.5.2PL0 Copyright (c) Steve Scherf et al.
# Submitted via: ExactAudioCopy v0.99pb5
#
DISCID=ed12bd0f
DTITLE=Curtis Counce - Complete Studio Recordings - The Master Takes (D
DTITLE=isc 2)
DYEAR=2007
DGENRE=Jazz
TTITLE0=Love Walked In
TTITLE1=Too Close for Comfort
TTITLE2=How Deep Is the Ocean?
TTITLE3=Complete
TTITLE4=Nica's Dream
TTITLE5=How Long Has This Been Going On
TTITLE6=Mean to Me
TTITLE7=I Can't Get Started
TTITLE8=LaRue
TTITLE9=Carl's Blues
TTITLE10=A Night in Tunisia
TTITLE11=Love Walked In (bonus track)
TTITLE12=Sophisticated Lady (bonus track)
TTITLE13=A Fifth for Frank (bonus track)
TTITLE14=The Butler Did It (bonus track)
EXTD=YEAR: 2007
EXTT0=
EXTT1=
EXTT2=
EXTT3=
EXTT4=
EXTT5=
EXTT6=
EXTT7=
EXTT8=
EXTT9=
EXTT10=
EXTT11=
EXTT12=
EXTT13=
EXTT14=
PLAYORDER=
